PathFileType	4	(X/Y/Z)	Run_400 01
DataRate	CameraRate	NumFrames	NumMarkers	Units	OrigDataRate	OrigDataStartFrame	OrigNumFrames
120	120	6	42	mm	120	344	128
Frame#	Time	LASI			RASI			LPSI			RTH1			RTH2			RTH3			LTH1			LTH2			LTH3			RTB1			RTB2			RTB3			LTB1			LTB2			LTB3			RCAL			RTOE			RMT5			LCAL			LTOE			LMT5			LACR			RACR			CLAV			C7			RUA1			RUA2			RUA3			RLEL			RMEL			LUA1			LUA2			LUA3			LLEL			LMEL			RFAsuperior			RFAradius			LFAsuperior			LFAradius			LFAulna			RFAulna			RPSI		
		X1	Y1	Z1	X2	Y2	Z2	X3	Y3	Z3	X4	Y4	Z4	X5	Y5	Z5	X6	Y6	Z6	X7	Y7	Z7	X8	Y8	Z8	X9	Y9	Z9	X10	Y10	Z10	X11	Y11	Z11	X12	Y12	Z12	X13	Y13	Z13	X14	Y14	Z14	X15	Y15	Z15	X16	Y16	Z16	X17	Y17	Z17	X18	Y18	Z18	X19	Y19	Z19	X20	Y20	Z20	X21	Y21	Z21	X22	Y22	Z22	X23	Y23	Z23	X24	Y24	Z24	X25	Y25	Z25	X26	Y26	Z26	X27	Y27	Z27	X28	Y28	Z28	X29	Y29	Z29	X30	Y30	Z30	X31	Y31	Z31	X32	Y32	Z32	X33	Y33	Z33	X34	Y34	Z34	X35	Y35	Z35	X36	Y36	Z36	X37	Y37	Z37	X38	Y38	Z38	X39	Y39	Z39	X40	Y40	Z40	X41	Y41	Z41	X42	Y42	Z42	

344	  2.866667	1133.409788	1000.996674	-446.924330	1122.310674	987.487346	-210.228639	964.360763	1047.286349	-389.267522	1021.728187	840.261344	-166.611621	1045.651523	685.650730	-202.413468	956.194737	614.389135	-215.730014	1129.469811	863.636485	-519.278849	1254.683988	839.029454	-497.072079	1279.683345	707.815723	-507.246771	900.708154	383.744005	-288.207654	824.296599	364.930980	-231.140243	778.806201	251.061545	-296.524548	1291.191962	515.912682	-436.941592	1179.822525	501.067351	-480.972316	1111.923756	426.131165	-416.047416	594.138855	205.995554	-321.620713	756.872400	 78.933784	-353.848692	720.216220	 48.308347	-250.562079	939.846851	454.235961	-399.053990	1043.654190	275.180864	-371.445267	1008.092141	265.262380	-472.209266	1073.682407	1495.116517	-503.488302	1147.129674	1472.661694	-148.238255	1185.550222	1435.815981	-323.032328	1067.327948	1516.656795	-326.568684	1131.271068	1384.426157	-101.672353	1138.772324	1295.561205	-118.672237	1053.414317	1294.345145	-82.504524	1037.698917	1180.176665	-60.045628	1005.874465	1174.665120	-125.246084	1008.836570	1455.451214	-543.630974	944.345807	1427.188643	-496.937546	948.681716	1371.658304	-563.594414	829.932409	1326.654131	-569.311797	823.869952	1321.833386	-495.535865	1135.472476	1172.409588	-78.474639	1281.829110	1130.038293	-168.344173	883.995770	1264.593595	-590.986159	998.019246	1102.166072	-560.608035	936.492027	1080.339654	-580.411683	1261.707216	1065.149979	-160.225382	963.505452	1045.088953	-289.590403	
345	  2.875000	1135.230042	1009.125258	-446.736082	1125.938987	991.731619	-211.775064	966.614273	1054.972645	-386.944989	1021.809153	846.627803	-165.344057	1038.226746	691.536873	-202.420075	945.548912	624.531708	-213.623114	1134.455836	876.483044	-519.977200	1256.982212	850.627365	-496.751382	1282.798021	718.415605	-506.650373	883.255768	394.663673	-284.650518	806.242763	376.971894	-227.193108	761.900207	261.564973	-291.889458	1306.210820	521.106574	-436.529875	1196.890209	495.357162	-481.025206	1136.639085	414.308715	-416.338226	580.058450	223.615190	-317.462261	729.444294	 81.672823	-352.276047	690.878107	 52.865362	-249.569321	963.049141	426.401552	-399.391084	1082.573790	256.921752	-371.322984	1047.489285	242.967763	-470.693708	1071.601545	1501.920744	-502.664132	1149.797644	1480.614713	-149.786160	1185.684697	1442.995800	-324.590253	1067.701385	1522.835494	-326.492312	1134.709310	1393.238024	-102.221234	1142.181332	1303.943655	-118.989712	1057.365825	1303.327338	-81.078867	1042.991797	1188.877411	-57.661469	1009.797776	1183.012432	-122.866182	1006.048226	1464.824627	-541.755963	942.556870	1437.984909	-494.011454	944.403532	1382.161500	-561.271390	824.753391	1338.717986	-564.994127	820.314888	1334.369832	-490.705956	1140.512093	1185.189004	-78.680678	1286.051576	1149.132685	-172.546657	877.945230	1276.935961	-587.799340	994.614699	1115.787315	-560.082241	933.014892	1093.129670	-578.303511	1269.454175	1083.491272	-164.710469	967.240587	1051.480089	-287.320594	
346	  2.883333	1136.515803	1016.602550	-447.012439	1129.423237	996.045996	-213.348170	968.716453	1062.427833	-384.690408	1022.330857	852.821442	-163.883034	1031.609503	697.502332	-202.160139	936.167475	634.774199	-212.585186	1138.339394	888.156757	-519.993060	1258.684203	860.590331	-496.538690	1284.181437	726.880701	-505.194243	868.110976	405.903659	-281.782120	790.681913	389.218630	-223.476969	746.819031	272.303362	-287.811082	1320.110472	525.583059	-436.860563	1213.919310	489.144289	-481.133544	1161.891728	402.708480	-416.763477	568.729824	242.147803	-312.573031	703.204187	 86.390791	-350.291351	663.639229	 59.872597	-248.215975	988.358764	398.669384	-399.345825	1122.295571	239.972899	-371.458910	1088.092593	222.027325	-469.155784	1069.940950	1507.912746	-502.002646	1152.228431	1488.193967	-151.332074	1185.948785	1449.431351	-325.898192	1068.159486	1528.406400	-326.613572	1137.960467	1401.829112	-102.756196	1145.387600	1312.099744	-118.855541	1060.909479	1312.193466	-79.873413	1047.708083	1197.330167	-55.462270	1013.200491	1191.129168	-120.659326	1003.758317	1473.504857	-539.993265	941.454536	1447.990024	-491.110505	940.562876	1392.012239	-558.956939	820.098930	1350.015867	-560.575734	817.420559	1346.151352	-486.127374	1144.653859	1197.133749	-79.198321	1289.260598	1166.421027	-176.247628	872.358829	1288.465344	-584.557123	991.810083	1128.780252	-559.250932	930.253223	1105.161046	-575.855359	1275.837521	1100.271912	-168.615777	970.764721	1057.820002	-285.194739	
347	  2.891667	1137.313093	1023.129906	-447.536169	1132.481624	1000.371534	-214.705288	970.694349	1069.519433	-382.605865	1023.008243	858.757995	-162.514647	1025.729255	703.488812	-201.709710	928.200374	644.747487	-212.700091	1140.606248	898.024018	-519.091034	1259.836597	868.594132	-496.275269	1283.786901	733.139226	-502.691785	855.490761	416.768912	-280.048185	778.064885	401.041893	-220.275773	733.287586	283.117733	-284.700061	1332.868514	529.209302	-438.126459	1230.624770	482.609016	-481.349605	1187.393375	391.515576	-417.229528	559.684999	261.472255	-306.862408	677.769541	 93.421036	-348.392538	638.337291	 69.319594	-246.961645	1015.448469	371.255204	-398.646413	1162.877463	224.918542	-371.382657	1129.604037	202.949844	-467.775716	1068.609645	1513.035068	-501.502684	1154.358423	1495.211229	-152.899567	1186.320334	1455.006442	-326.990226	1068.612351	1533.318058	-326.896714	1140.953944	1410.046678	-103.292830	1148.438191	1319.895509	-118.256725	1064.053232	1320.617143	-79.105192	1051.868995	1205.260044	-53.529837	1016.078560	1198.665442	-118.772897	1001.960978	1481.384965	-538.363139	940.948887	1456.839622	-488.318392	937.139968	1401.041563	-556.681836	815.979588	1360.400091	-556.055038	815.052119	1357.029949	-481.731836	1147.994321	1207.795722	-79.941249	1291.684411	1181.565533	-179.464888	867.357714	1299.075297	-581.252593	989.572807	1140.975685	-558.151886	928.129223	1116.262103	-573.123051	1281.023730	1115.071488	-171.924146	973.898254	1064.095608	-283.257373	
348	  2.900000	1137.732349	1028.544806	-448.023037	1134.931444	1004.567091	-215.722577	972.620682	1076.116661	-380.763003	1023.625538	864.366320	-161.479201	1020.726403	709.385892	-201.235512	921.996495	653.869608	-213.613074	1141.036079	905.598833	-517.308861	1260.181662	874.312790	-496.024319	1281.624165	737.088244	-499.037026	845.361026	426.527869	-279.602923	768.539393	411.828108	-217.861533	720.923756	293.940065	-282.633602	1344.415400	531.873404	-439.980173	1246.820445	475.772283	-481.624499	1212.837236	380.837980	-417.570664	552.006215	281.361261	-300.346205	652.768169	103.134828	-347.134392	614.437538	 80.928654	-246.379041	1043.901358	344.324723	-397.238894	1204.079445	212.379964	-370.584884	1171.696402	186.224303	-466.681365	1067.529628	1517.288552	-501.144854	1156.147781	1501.510302	-154.430303	1186.756443	1459.731957	-327.934736	1069.022888	1537.644443	-327.272234	1143.575092	1417.687419	-103.838230	1151.288987	1327.179670	-117.293310	1066.770594	1328.277228	-78.839530	1055.519254	1212.447740	-51.876972	1018.376502	1205.355151	-117.269867	1000.648095	1488.338890	-536.955352	940.888135	1464.274159	-485.780014	934.154228	1409.070002	-554.506790	812.402879	1369.741947	-551.555516	813.087313	1366.899115	-477.447914	1150.711518	1216.887257	-80.708556	1293.513277	1194.254700	-182.264149	863.030324	1308.657359	-577.889417	987.886451	1152.225545	-556.795009	926.571940	1126.311953	-570.112878	1285.131018	1127.528527	-174.736253	976.510171	1070.228835	-281.561189	
349	  2.908333	1137.900610	1032.877852	-448.240429	1136.718503	1008.534595	-216.335867	974.441304	1082.091501	-379.188021	1024.019635	869.617613	-160.824711	1017.024684	714.925120	-200.964469	917.981845	661.430460	-214.796768	1139.730551	910.403653	-515.031973	1259.146799	877.508799	-496.165301	1277.872459	738.669661	-494.464722	837.420702	434.672355	-280.293616	761.879480	421.215870	-216.408434	709.327015	304.879466	-281.411862	1354.594521	533.503638	-441.606400	1262.507489	468.508319	-481.803506	1237.868619	370.686229	-417.580393	544.491082	301.541757	-293.149934	628.178881	115.947174	-346.848462	591.538830	 94.452254	-246.766088	1073.295118	318.069902	-395.329241	1245.191636	202.548057	-368.948768	1213.970937	172.021784	-465.831578	1066.661698	1520.725482	-500.905110	1157.587988	1506.960795	-155.844126	1187.216172	1463.728407	-328.807080	1069.417021	1541.510247	-327.681370	1145.717914	1424.489592	-104.389117	1153.849144	1333.807347	-116.124871	1069.049068	1334.900646	-78.952950	1058.688374	1218.750308	-50.486707	1020.027395	1211.114895	-116.074572	999.762659	1494.225098	-535.894399	941.074062	1470.209744	-483.651311	931.646507	1415.935092	-552.505163	809.367303	1377.925777	-547.257684	811.473776	1375.605470	-473.289090	1152.988956	1224.273057	-81.293605	1294.898244	1204.225544	-184.671998	859.419457	1317.106196	-574.489901	986.731798	1162.408503	-555.190650	925.552294	1135.224447	-566.853668	1288.243373	1137.359950	-177.097525	978.513684	1076.073056	-280.152631	
